<mxfile host="app.diagrams.net" agent="Mozilla/5.0 (Windows NT 10.0; Win64; x64) AppleWebKit/537.36 (KHTML, like Gecko) Chrome/134.0.0.0 Safari/537.36" version="26.1.3">
  <diagram name="Page-1" id="3NziufLDlcr1CO1E--7A">
    <mxGraphModel dx="880" dy="468" grid="1" gridSize="10" guides="1" tooltips="1" connect="1" arrows="1" fold="1" page="1" pageScale="1" pageWidth="850" pageHeight="1100" math="0" shadow="0">
      <root>
        <mxCell id="0" />
        <mxCell id="1" parent="0" />
        <mxCell id="e2TswLPF9frkwuoLJc3t-33" value="Login/Signup" style="ellipse;whiteSpace=wrap;html=1;" vertex="1" parent="1">
          <mxGeometry x="270" y="30" width="155" height="40" as="geometry" />
        </mxCell>
        <mxCell id="e2TswLPF9frkwuoLJc3t-35" value="" style="endArrow=classic;html=1;rounded=0;exitX=0.5;exitY=1;exitDx=0;exitDy=0;entryX=0.5;entryY=0;entryDx=0;entryDy=0;entryPerimeter=0;" edge="1" parent="1" source="e2TswLPF9frkwuoLJc3t-33" target="e2TswLPF9frkwuoLJc3t-38">
          <mxGeometry width="50" height="50" relative="1" as="geometry">
            <mxPoint x="360" y="280" as="sourcePoint" />
            <mxPoint x="440" y="120" as="targetPoint" />
          </mxGeometry>
        </mxCell>
        <mxCell id="e2TswLPF9frkwuoLJc3t-36" value="" style="endArrow=classic;html=1;rounded=0;exitX=0.5;exitY=1;exitDx=0;exitDy=0;entryX=0.5;entryY=0;entryDx=0;entryDy=0;entryPerimeter=0;" edge="1" parent="1" source="e2TswLPF9frkwuoLJc3t-33" target="e2TswLPF9frkwuoLJc3t-37">
          <mxGeometry width="50" height="50" relative="1" as="geometry">
            <mxPoint x="358" y="80" as="sourcePoint" />
            <mxPoint x="260" y="120" as="targetPoint" />
          </mxGeometry>
        </mxCell>
        <mxCell id="e2TswLPF9frkwuoLJc3t-39" value="If First Login" style="edgeLabel;html=1;align=center;verticalAlign=middle;resizable=0;points=[];" vertex="1" connectable="0" parent="e2TswLPF9frkwuoLJc3t-36">
          <mxGeometry x="-0.1028" relative="1" as="geometry">
            <mxPoint as="offset" />
          </mxGeometry>
        </mxCell>
        <mxCell id="e2TswLPF9frkwuoLJc3t-37" value="Profile" style="ellipse;whiteSpace=wrap;html=1;" vertex="1" parent="1">
          <mxGeometry x="200" y="120" width="120" height="30" as="geometry" />
        </mxCell>
        <mxCell id="e2TswLPF9frkwuoLJc3t-38" value="Dashboard" style="ellipse;whiteSpace=wrap;html=1;" vertex="1" parent="1">
          <mxGeometry x="380" y="120" width="120" height="30" as="geometry" />
        </mxCell>
        <mxCell id="e2TswLPF9frkwuoLJc3t-41" value="Reset Password" style="ellipse;whiteSpace=wrap;html=1;" vertex="1" parent="1">
          <mxGeometry x="530" y="110" width="120" height="30" as="geometry" />
        </mxCell>
        <mxCell id="e2TswLPF9frkwuoLJc3t-42" value="Login Verification" style="ellipse;whiteSpace=wrap;html=1;" vertex="1" parent="1">
          <mxGeometry x="530" y="75" width="120" height="30" as="geometry" />
        </mxCell>
        <mxCell id="e2TswLPF9frkwuoLJc3t-43" value="" style="endArrow=classic;html=1;rounded=0;exitX=1;exitY=0.5;exitDx=0;exitDy=0;entryX=0;entryY=0.5;entryDx=0;entryDy=0;" edge="1" parent="1" source="e2TswLPF9frkwuoLJc3t-33" target="e2TswLPF9frkwuoLJc3t-42">
          <mxGeometry width="50" height="50" relative="1" as="geometry">
            <mxPoint x="358" y="80" as="sourcePoint" />
            <mxPoint x="450" y="130" as="targetPoint" />
          </mxGeometry>
        </mxCell>
        <mxCell id="e2TswLPF9frkwuoLJc3t-44" value="" style="endArrow=classic;html=1;rounded=0;exitX=1;exitY=0.5;exitDx=0;exitDy=0;entryX=0;entryY=0.5;entryDx=0;entryDy=0;" edge="1" parent="1" source="e2TswLPF9frkwuoLJc3t-33" target="e2TswLPF9frkwuoLJc3t-41">
          <mxGeometry width="50" height="50" relative="1" as="geometry">
            <mxPoint x="435" y="60" as="sourcePoint" />
            <mxPoint x="540" y="75" as="targetPoint" />
          </mxGeometry>
        </mxCell>
        <mxCell id="e2TswLPF9frkwuoLJc3t-45" value="Admin" style="shape=umlActor;verticalLabelPosition=bottom;verticalAlign=top;html=1;outlineConnect=0;" vertex="1" parent="1">
          <mxGeometry x="90" y="40" width="30" height="60" as="geometry" />
        </mxCell>
        <mxCell id="e2TswLPF9frkwuoLJc3t-49" value="CRM System" style="shape=umlActor;verticalLabelPosition=bottom;verticalAlign=top;html=1;outlineConnect=0;" vertex="1" parent="1">
          <mxGeometry x="760" y="60" width="30" height="60" as="geometry" />
        </mxCell>
        <mxCell id="e2TswLPF9frkwuoLJc3t-50" value="" style="endArrow=classic;html=1;rounded=0;exitX=1;exitY=0.5;exitDx=0;exitDy=0;entryX=0.5;entryY=0.5;entryDx=0;entryDy=0;entryPerimeter=0;" edge="1" parent="1" source="e2TswLPF9frkwuoLJc3t-41" target="e2TswLPF9frkwuoLJc3t-49">
          <mxGeometry width="50" height="50" relative="1" as="geometry">
            <mxPoint x="360" y="280" as="sourcePoint" />
            <mxPoint x="410" y="230" as="targetPoint" />
          </mxGeometry>
        </mxCell>
        <mxCell id="e2TswLPF9frkwuoLJc3t-51" value="" style="endArrow=classic;html=1;rounded=0;entryX=0.5;entryY=0.5;entryDx=0;entryDy=0;entryPerimeter=0;" edge="1" parent="1" source="e2TswLPF9frkwuoLJc3t-42" target="e2TswLPF9frkwuoLJc3t-49">
          <mxGeometry width="50" height="50" relative="1" as="geometry">
            <mxPoint x="660" y="135" as="sourcePoint" />
            <mxPoint x="785" y="100" as="targetPoint" />
          </mxGeometry>
        </mxCell>
        <mxCell id="e2TswLPF9frkwuoLJc3t-52" value="" style="endArrow=classic;html=1;rounded=0;exitX=1;exitY=0;exitDx=0;exitDy=0;entryX=0.5;entryY=0.5;entryDx=0;entryDy=0;entryPerimeter=0;" edge="1" parent="1" source="e2TswLPF9frkwuoLJc3t-33" target="e2TswLPF9frkwuoLJc3t-49">
          <mxGeometry width="50" height="50" relative="1" as="geometry">
            <mxPoint x="425" y="40" as="sourcePoint" />
            <mxPoint x="760" y="78.28571428571433" as="targetPoint" />
          </mxGeometry>
        </mxCell>
        <mxCell id="e2TswLPF9frkwuoLJc3t-54" value="Reminder" style="ellipse;whiteSpace=wrap;html=1;" vertex="1" parent="1">
          <mxGeometry x="680" y="190" width="120" height="30" as="geometry" />
        </mxCell>
        <mxCell id="e2TswLPF9frkwuoLJc3t-55" value="" style="endArrow=classic;html=1;rounded=0;entryX=1;entryY=0;entryDx=0;entryDy=0;exitX=1;exitY=1;exitDx=0;exitDy=0;exitPerimeter=0;" edge="1" parent="1" source="e2TswLPF9frkwuoLJc3t-49" target="e2TswLPF9frkwuoLJc3t-54">
          <mxGeometry width="50" height="50" relative="1" as="geometry">
            <mxPoint x="360" y="280" as="sourcePoint" />
            <mxPoint x="410" y="230" as="targetPoint" />
          </mxGeometry>
        </mxCell>
        <mxCell id="e2TswLPF9frkwuoLJc3t-56" value="CRM User" style="shape=umlActor;verticalLabelPosition=bottom;verticalAlign=top;html=1;outlineConnect=0;" vertex="1" parent="1">
          <mxGeometry x="90" y="190" width="30" height="60" as="geometry" />
        </mxCell>
        <mxCell id="e2TswLPF9frkwuoLJc3t-57" value="" style="endArrow=classic;html=1;rounded=0;exitX=0;exitY=0;exitDx=0;exitDy=0;entryX=0.5;entryY=0;entryDx=0;entryDy=0;entryPerimeter=0;" edge="1" parent="1" source="e2TswLPF9frkwuoLJc3t-54" target="e2TswLPF9frkwuoLJc3t-56">
          <mxGeometry width="50" height="50" relative="1" as="geometry">
            <mxPoint x="360" y="280" as="sourcePoint" />
            <mxPoint x="410" y="230" as="targetPoint" />
          </mxGeometry>
        </mxCell>
        <mxCell id="e2TswLPF9frkwuoLJc3t-58" value="CRM" style="ellipse;whiteSpace=wrap;html=1;" vertex="1" parent="1">
          <mxGeometry x="360" y="230" width="120" height="30" as="geometry" />
        </mxCell>
        <mxCell id="e2TswLPF9frkwuoLJc3t-66" value="Lead" style="ellipse;whiteSpace=wrap;html=1;" vertex="1" parent="1">
          <mxGeometry x="120" y="300" width="120" height="30" as="geometry" />
        </mxCell>
        <mxCell id="e2TswLPF9frkwuoLJc3t-67" value="Invoice" style="ellipse;whiteSpace=wrap;html=1;" vertex="1" parent="1">
          <mxGeometry x="240" y="340" width="120" height="30" as="geometry" />
        </mxCell>
        <mxCell id="e2TswLPF9frkwuoLJc3t-68" value="Deal" style="ellipse;whiteSpace=wrap;html=1;" vertex="1" parent="1">
          <mxGeometry x="460" y="350" width="120" height="30" as="geometry" />
        </mxCell>
        <mxCell id="e2TswLPF9frkwuoLJc3t-69" value="Account" style="ellipse;whiteSpace=wrap;html=1;" vertex="1" parent="1">
          <mxGeometry x="590" y="340" width="120" height="30" as="geometry" />
        </mxCell>
        <mxCell id="e2TswLPF9frkwuoLJc3t-70" value="Contact" style="ellipse;whiteSpace=wrap;html=1;" vertex="1" parent="1">
          <mxGeometry x="630" y="290" width="120" height="30" as="geometry" />
        </mxCell>
        <mxCell id="e2TswLPF9frkwuoLJc3t-72" value="" style="endArrow=none;dashed=1;html=1;rounded=0;exitX=0.583;exitY=-0.1;exitDx=0;exitDy=0;exitPerimeter=0;entryX=0.5;entryY=1;entryDx=0;entryDy=0;" edge="1" parent="1" source="e2TswLPF9frkwuoLJc3t-66" target="e2TswLPF9frkwuoLJc3t-58">
          <mxGeometry width="50" height="50" relative="1" as="geometry">
            <mxPoint x="360" y="280" as="sourcePoint" />
            <mxPoint x="410" y="230" as="targetPoint" />
          </mxGeometry>
        </mxCell>
        <mxCell id="e2TswLPF9frkwuoLJc3t-73" value="&amp;lt;&amp;lt;Include&amp;gt;&amp;gt;" style="edgeLabel;html=1;align=center;verticalAlign=middle;resizable=0;points=[];" vertex="1" connectable="0" parent="e2TswLPF9frkwuoLJc3t-72">
          <mxGeometry x="0.0009" relative="1" as="geometry">
            <mxPoint as="offset" />
          </mxGeometry>
        </mxCell>
        <mxCell id="e2TswLPF9frkwuoLJc3t-74" value="" style="endArrow=none;dashed=1;html=1;rounded=0;exitX=0.5;exitY=0;exitDx=0;exitDy=0;entryX=0.5;entryY=1;entryDx=0;entryDy=0;" edge="1" parent="1" source="e2TswLPF9frkwuoLJc3t-67" target="e2TswLPF9frkwuoLJc3t-58">
          <mxGeometry width="50" height="50" relative="1" as="geometry">
            <mxPoint x="200" y="307" as="sourcePoint" />
            <mxPoint x="430" y="270" as="targetPoint" />
          </mxGeometry>
        </mxCell>
        <mxCell id="e2TswLPF9frkwuoLJc3t-75" value="&amp;lt;&amp;lt;Include&amp;gt;&amp;gt;" style="edgeLabel;html=1;align=center;verticalAlign=middle;resizable=0;points=[];" vertex="1" connectable="0" parent="e2TswLPF9frkwuoLJc3t-74">
          <mxGeometry x="0.0009" relative="1" as="geometry">
            <mxPoint as="offset" />
          </mxGeometry>
        </mxCell>
        <mxCell id="e2TswLPF9frkwuoLJc3t-76" value="" style="endArrow=none;dashed=1;html=1;rounded=0;exitX=0.5;exitY=0;exitDx=0;exitDy=0;entryX=0.5;entryY=1;entryDx=0;entryDy=0;" edge="1" parent="1" source="e2TswLPF9frkwuoLJc3t-68" target="e2TswLPF9frkwuoLJc3t-58">
          <mxGeometry width="50" height="50" relative="1" as="geometry">
            <mxPoint x="290" y="340" as="sourcePoint" />
            <mxPoint x="430" y="270" as="targetPoint" />
          </mxGeometry>
        </mxCell>
        <mxCell id="e2TswLPF9frkwuoLJc3t-77" value="&amp;lt;&amp;lt;Include&amp;gt;&amp;gt;" style="edgeLabel;html=1;align=center;verticalAlign=middle;resizable=0;points=[];" vertex="1" connectable="0" parent="e2TswLPF9frkwuoLJc3t-76">
          <mxGeometry x="0.0009" relative="1" as="geometry">
            <mxPoint as="offset" />
          </mxGeometry>
        </mxCell>
        <mxCell id="e2TswLPF9frkwuoLJc3t-78" value="" style="endArrow=none;dashed=1;html=1;rounded=0;exitX=0.5;exitY=0;exitDx=0;exitDy=0;entryX=0.5;entryY=1;entryDx=0;entryDy=0;" edge="1" parent="1" source="e2TswLPF9frkwuoLJc3t-69" target="e2TswLPF9frkwuoLJc3t-58">
          <mxGeometry width="50" height="50" relative="1" as="geometry">
            <mxPoint x="290" y="340" as="sourcePoint" />
            <mxPoint x="430" y="270" as="targetPoint" />
          </mxGeometry>
        </mxCell>
        <mxCell id="e2TswLPF9frkwuoLJc3t-79" value="&amp;lt;&amp;lt;Include&amp;gt;&amp;gt;" style="edgeLabel;html=1;align=center;verticalAlign=middle;resizable=0;points=[];" vertex="1" connectable="0" parent="e2TswLPF9frkwuoLJc3t-78">
          <mxGeometry x="0.0009" relative="1" as="geometry">
            <mxPoint as="offset" />
          </mxGeometry>
        </mxCell>
        <mxCell id="e2TswLPF9frkwuoLJc3t-80" value="" style="endArrow=none;dashed=1;html=1;rounded=0;exitX=0.417;exitY=0;exitDx=0;exitDy=0;entryX=0.5;entryY=1;entryDx=0;entryDy=0;exitPerimeter=0;" edge="1" parent="1" source="e2TswLPF9frkwuoLJc3t-70" target="e2TswLPF9frkwuoLJc3t-58">
          <mxGeometry width="50" height="50" relative="1" as="geometry">
            <mxPoint x="300" y="350" as="sourcePoint" />
            <mxPoint x="440" y="280" as="targetPoint" />
          </mxGeometry>
        </mxCell>
        <mxCell id="e2TswLPF9frkwuoLJc3t-81" value="&amp;lt;&amp;lt;Include&amp;gt;&amp;gt;" style="edgeLabel;html=1;align=center;verticalAlign=middle;resizable=0;points=[];" vertex="1" connectable="0" parent="e2TswLPF9frkwuoLJc3t-80">
          <mxGeometry x="0.0009" relative="1" as="geometry">
            <mxPoint as="offset" />
          </mxGeometry>
        </mxCell>
        <mxCell id="e2TswLPF9frkwuoLJc3t-84" value="Activities" style="ellipse;whiteSpace=wrap;html=1;" vertex="1" parent="1">
          <mxGeometry x="360" y="410" width="120" height="30" as="geometry" />
        </mxCell>
        <mxCell id="e2TswLPF9frkwuoLJc3t-85" value="" style="endArrow=none;dashed=1;html=1;rounded=0;exitX=0.5;exitY=0;exitDx=0;exitDy=0;entryX=0.5;entryY=1;entryDx=0;entryDy=0;" edge="1" source="e2TswLPF9frkwuoLJc3t-84" parent="1" target="e2TswLPF9frkwuoLJc3t-58">
          <mxGeometry width="50" height="50" relative="1" as="geometry">
            <mxPoint x="300" y="350" as="sourcePoint" />
            <mxPoint x="430" y="270" as="targetPoint" />
          </mxGeometry>
        </mxCell>
        <mxCell id="e2TswLPF9frkwuoLJc3t-86" value="&amp;lt;&amp;lt;Include&amp;gt;&amp;gt;" style="edgeLabel;html=1;align=center;verticalAlign=middle;resizable=0;points=[];" vertex="1" connectable="0" parent="e2TswLPF9frkwuoLJc3t-85">
          <mxGeometry x="0.0009" relative="1" as="geometry">
            <mxPoint as="offset" />
          </mxGeometry>
        </mxCell>
        <mxCell id="e2TswLPF9frkwuoLJc3t-89" value="Complaint" style="ellipse;whiteSpace=wrap;html=1;" vertex="1" parent="1">
          <mxGeometry x="160" y="490" width="120" height="30" as="geometry" />
        </mxCell>
        <mxCell id="e2TswLPF9frkwuoLJc3t-90" value="" style="endArrow=none;dashed=1;html=1;rounded=0;exitX=0.583;exitY=-0.1;exitDx=0;exitDy=0;exitPerimeter=0;entryX=0;entryY=0.767;entryDx=0;entryDy=0;entryPerimeter=0;" edge="1" source="e2TswLPF9frkwuoLJc3t-89" parent="1" target="e2TswLPF9frkwuoLJc3t-84">
          <mxGeometry width="50" height="50" relative="1" as="geometry">
            <mxPoint x="387.5" y="506.08" as="sourcePoint" />
            <mxPoint x="408.96000000000004" y="440" as="targetPoint" />
          </mxGeometry>
        </mxCell>
        <mxCell id="e2TswLPF9frkwuoLJc3t-91" value="&amp;lt;&amp;lt;Include&amp;gt;&amp;gt;" style="edgeLabel;html=1;align=center;verticalAlign=middle;resizable=0;points=[];" vertex="1" connectable="0" parent="e2TswLPF9frkwuoLJc3t-90">
          <mxGeometry x="0.0009" relative="1" as="geometry">
            <mxPoint as="offset" />
          </mxGeometry>
        </mxCell>
        <mxCell id="e2TswLPF9frkwuoLJc3t-92" value="Task" style="ellipse;whiteSpace=wrap;html=1;" vertex="1" parent="1">
          <mxGeometry x="250" y="535" width="120" height="30" as="geometry" />
        </mxCell>
        <mxCell id="e2TswLPF9frkwuoLJc3t-93" value="" style="endArrow=none;dashed=1;html=1;rounded=0;exitX=0.583;exitY=-0.1;exitDx=0;exitDy=0;exitPerimeter=0;entryX=0;entryY=1;entryDx=0;entryDy=0;" edge="1" parent="1" source="e2TswLPF9frkwuoLJc3t-92" target="e2TswLPF9frkwuoLJc3t-84">
          <mxGeometry width="50" height="50" relative="1" as="geometry">
            <mxPoint x="497.5" y="546.0699999999999" as="sourcePoint" />
            <mxPoint x="396.03999999999996" y="420" as="targetPoint" />
          </mxGeometry>
        </mxCell>
        <mxCell id="e2TswLPF9frkwuoLJc3t-94" value="&amp;lt;&amp;lt;Include&amp;gt;&amp;gt;" style="edgeLabel;html=1;align=center;verticalAlign=middle;resizable=0;points=[];" vertex="1" connectable="0" parent="e2TswLPF9frkwuoLJc3t-93">
          <mxGeometry x="0.0009" relative="1" as="geometry">
            <mxPoint as="offset" />
          </mxGeometry>
        </mxCell>
        <mxCell id="e2TswLPF9frkwuoLJc3t-95" value="Email" style="ellipse;whiteSpace=wrap;html=1;" vertex="1" parent="1">
          <mxGeometry x="360" y="565" width="120" height="30" as="geometry" />
        </mxCell>
        <mxCell id="e2TswLPF9frkwuoLJc3t-96" value="" style="endArrow=none;dashed=1;html=1;rounded=0;exitX=0.583;exitY=-0.1;exitDx=0;exitDy=0;exitPerimeter=0;entryX=0.592;entryY=0.933;entryDx=0;entryDy=0;entryPerimeter=0;" edge="1" parent="1" source="e2TswLPF9frkwuoLJc3t-95" target="e2TswLPF9frkwuoLJc3t-84">
          <mxGeometry width="50" height="50" relative="1" as="geometry">
            <mxPoint x="627.5" y="565.0799999999999" as="sourcePoint" />
            <mxPoint x="430" y="450" as="targetPoint" />
          </mxGeometry>
        </mxCell>
        <mxCell id="e2TswLPF9frkwuoLJc3t-97" value="&amp;lt;&amp;lt;Include&amp;gt;&amp;gt;" style="edgeLabel;html=1;align=center;verticalAlign=middle;resizable=0;points=[];" vertex="1" connectable="0" parent="e2TswLPF9frkwuoLJc3t-96">
          <mxGeometry x="0.0009" relative="1" as="geometry">
            <mxPoint as="offset" />
          </mxGeometry>
        </mxCell>
        <mxCell id="e2TswLPF9frkwuoLJc3t-98" value="Calendar" style="ellipse;whiteSpace=wrap;html=1;" vertex="1" parent="1">
          <mxGeometry x="490" y="535" width="120" height="30" as="geometry" />
        </mxCell>
        <mxCell id="e2TswLPF9frkwuoLJc3t-99" value="" style="endArrow=none;dashed=1;html=1;rounded=0;exitX=0.583;exitY=-0.1;exitDx=0;exitDy=0;exitPerimeter=0;entryX=0.5;entryY=1;entryDx=0;entryDy=0;" edge="1" parent="1" source="e2TswLPF9frkwuoLJc3t-98" target="e2TswLPF9frkwuoLJc3t-84">
          <mxGeometry width="50" height="50" relative="1" as="geometry">
            <mxPoint x="767.5" y="565.0799999999999" as="sourcePoint" />
            <mxPoint x="740" y="492" as="targetPoint" />
          </mxGeometry>
        </mxCell>
        <mxCell id="e2TswLPF9frkwuoLJc3t-100" value="&amp;lt;&amp;lt;Include&amp;gt;&amp;gt;" style="edgeLabel;html=1;align=center;verticalAlign=middle;resizable=0;points=[];" vertex="1" connectable="0" parent="e2TswLPF9frkwuoLJc3t-99">
          <mxGeometry x="0.0009" relative="1" as="geometry">
            <mxPoint as="offset" />
          </mxGeometry>
        </mxCell>
        <mxCell id="e2TswLPF9frkwuoLJc3t-101" value="Schedule" style="ellipse;whiteSpace=wrap;html=1;" vertex="1" parent="1">
          <mxGeometry x="600" y="490" width="120" height="30" as="geometry" />
        </mxCell>
        <mxCell id="e2TswLPF9frkwuoLJc3t-102" value="" style="endArrow=none;dashed=1;html=1;rounded=0;exitX=0.583;exitY=-0.1;exitDx=0;exitDy=0;exitPerimeter=0;entryX=1;entryY=1;entryDx=0;entryDy=0;" edge="1" parent="1" source="e2TswLPF9frkwuoLJc3t-101" target="e2TswLPF9frkwuoLJc3t-84">
          <mxGeometry width="50" height="50" relative="1" as="geometry">
            <mxPoint x="807.5" y="476.0799999999999" as="sourcePoint" />
            <mxPoint x="780" y="403" as="targetPoint" />
          </mxGeometry>
        </mxCell>
        <mxCell id="e2TswLPF9frkwuoLJc3t-103" value="&amp;lt;&amp;lt;Include&amp;gt;&amp;gt;" style="edgeLabel;html=1;align=center;verticalAlign=middle;resizable=0;points=[];" vertex="1" connectable="0" parent="e2TswLPF9frkwuoLJc3t-102">
          <mxGeometry x="0.0009" relative="1" as="geometry">
            <mxPoint as="offset" />
          </mxGeometry>
        </mxCell>
        <mxCell id="e2TswLPF9frkwuoLJc3t-104" value="" style="endArrow=classic;html=1;rounded=0;entryX=0;entryY=0.5;entryDx=0;entryDy=0;exitX=0.5;exitY=0.5;exitDx=0;exitDy=0;exitPerimeter=0;" edge="1" parent="1" source="e2TswLPF9frkwuoLJc3t-45" target="e2TswLPF9frkwuoLJc3t-33">
          <mxGeometry width="50" height="50" relative="1" as="geometry">
            <mxPoint x="360" y="290" as="sourcePoint" />
            <mxPoint x="410" y="240" as="targetPoint" />
          </mxGeometry>
        </mxCell>
      </root>
    </mxGraphModel>
  </diagram>
</mxfile>
